<?xml version="1.0" encoding="utf-8" ?>
<svg baseProfile="full" height="262" version="1.1" viewBox="0 0 251 262" width="251" xmlns="http://www.w3.org/2000/svg" xmlns:ev="http://www.w3.org/2001/xml-events" xmlns:xlink="http://www.w3.org/1999/xlink"><defs /><rect fill="#ffffff" height="262" width="251" x="0" y="0" /><path d="M 121 19 L 120 20 L 112 20 L 111 21 L 106 21 L 105 22 L 101 22 L 100 23 L 96 23 L 95 24 L 93 24 L 92 25 L 90 25 L 89 26 L 87 26 L 86 27 L 85 27 L 84 28 L 82 28 L 81 29 L 80 29 L 79 30 L 78 30 L 77 31 L 75 31 L 73 33 L 72 33 L 71 34 L 70 34 L 69 35 L 68 35 L 67 36 L 66 36 L 64 38 L 63 38 L 61 40 L 60 40 L 57 43 L 56 43 L 53 46 L 52 46 L 35 63 L 35 64 L 32 67 L 32 68 L 29 71 L 29 72 L 27 74 L 27 75 L 26 76 L 26 77 L 24 79 L 24 80 L 23 81 L 23 82 L 21 84 L 21 85 L 20 86 L 20 87 L 19 88 L 19 90 L 18 91 L 18 92 L 17 93 L 17 94 L 16 95 L 16 97 L 15 98 L 15 100 L 14 101 L 14 102 L 13 103 L 13 105 L 12 106 L 12 109 L 11 110 L 11 113 L 10 114 L 10 118 L 9 119 L 9 124 L 8 125 L 8 133 L 7 134 L 7 150 L 8 151 L 8 160 L 9 161 L 9 166 L 10 167 L 10 171 L 11 172 L 11 175 L 12 176 L 12 179 L 13 180 L 13 182 L 14 183 L 14 184 L 15 185 L 15 187 L 16 188 L 16 190 L 17 191 L 17 192 L 18 193 L 18 194 L 19 195 L 19 197 L 20 198 L 20 199 L 21 200 L 21 201 L 23 203 L 23 204 L 24 205 L 24 206 L 25 207 L 25 208 L 27 210 L 27 211 L 29 213 L 29 214 L 31 216 L 31 217 L 35 221 L 35 222 L 42 229 L 42 230 L 45 233 L 46 233 L 52 239 L 53 239 L 57 243 L 58 243 L 60 245 L 61 245 L 63 247 L 64 247 L 66 249 L 67 249 L 68 250 L 69 250 L 70 251 L 71 251 L 73 253 L 74 253 L 75 254 L 76 254 L 77 255 L 79 255 L 80 256 L 81 256 L 82 257 L 83 257 L 84 258 L 86 258 L 87 259 L 89 259 L 90 260 L 92 260 L 93 259 L 94 259 L 96 257 L 96 256 L 97 255 L 97 242 L 96 241 L 96 234 L 91 234 L 90 235 L 81 235 L 80 234 L 75 234 L 74 233 L 73 233 L 72 232 L 70 232 L 69 231 L 68 231 L 66 229 L 65 229 L 60 224 L 60 223 L 58 221 L 58 220 L 57 219 L 57 218 L 56 217 L 56 216 L 55 215 L 55 213 L 54 212 L 54 211 L 52 209 L 52 208 L 51 207 L 51 206 L 44 199 L 43 199 L 38 194 L 38 193 L 40 191 L 41 191 L 42 190 L 46 190 L 47 191 L 49 191 L 50 192 L 51 192 L 52 193 L 53 193 L 55 195 L 56 195 L 61 200 L 61 201 L 63 203 L 63 204 L 65 206 L 65 207 L 71 213 L 72 213 L 73 214 L 74 214 L 75 215 L 77 215 L 78 216 L 90 216 L 91 215 L 94 215 L 95 214 L 96 214 L 97 213 L 97 211 L 98 210 L 98 208 L 99 207 L 99 205 L 100 204 L 100 203 L 101 202 L 101 201 L 103 199 L 103 198 L 102 197 L 98 197 L 97 196 L 93 196 L 92 195 L 89 195 L 88 194 L 86 194 L 85 193 L 83 193 L 82 192 L 81 192 L 80 191 L 78 191 L 76 189 L 75 189 L 74 188 L 73 188 L 71 186 L 70 186 L 60 176 L 60 175 L 58 173 L 58 172 L 57 171 L 57 170 L 56 169 L 56 168 L 55 167 L 55 166 L 54 165 L 54 163 L 53 162 L 53 159 L 52 158 L 52 155 L 51 154 L 51 149 L 50 148 L 50 128 L 51 127 L 51 123 L 52 122 L 52 120 L 53 119 L 53 117 L 54 116 L 54 115 L 55 114 L 55 113 L 56 112 L 56 111 L 57 110 L 57 109 L 60 106 L 60 105 L 62 103 L 62 102 L 61 101 L 61 98 L 60 97 L 60 81 L 61 80 L 61 76 L 62 75 L 62 73 L 63 72 L 63 71 L 64 70 L 65 70 L 66 69 L 68 69 L 69 70 L 73 70 L 74 71 L 76 71 L 77 72 L 79 72 L 80 73 L 81 73 L 82 74 L 83 74 L 84 75 L 85 75 L 86 76 L 87 76 L 88 77 L 89 77 L 91 79 L 92 79 L 93 80 L 94 80 L 96 82 L 99 82 L 100 81 L 104 81 L 105 80 L 109 80 L 110 79 L 118 79 L 119 78 L 136 78 L 137 79 L 144 79 L 145 80 L 149 80 L 150 81 L 154 81 L 155 82 L 158 82 L 160 80 L 161 80 L 162 79 L 163 79 L 165 77 L 166 77 L 167 76 L 168 76 L 169 75 L 170 75 L 171 74 L 172 74 L 173 73 L 174 73 L 175 72 L 177 72 L 178 71 L 180 71 L 181 70 L 184 70 L 185 69 L 188 69 L 189 70 L 190 70 L 191 71 L 191 72 L 192 73 L 192 75 L 193 76 L 193 80 L 194 81 L 194 97 L 193 98 L 193 101 L 192 102 L 192 103 L 194 105 L 194 106 L 197 109 L 197 110 L 198 111 L 198 112 L 199 113 L 199 114 L 200 115 L 200 116 L 201 117 L 201 119 L 202 120 L 202 122 L 203 123 L 203 126 L 204 127 L 204 148 L 203 149 L 203 154 L 202 155 L 202 158 L 201 159 L 201 162 L 200 163 L 200 165 L 199 166 L 199 167 L 198 168 L 198 169 L 197 170 L 197 171 L 195 173 L 195 174 L 194 175 L 194 176 L 184 186 L 183 186 L 181 188 L 180 188 L 179 189 L 178 189 L 177 190 L 176 190 L 175 191 L 174 191 L 173 192 L 172 192 L 171 193 L 169 193 L 168 194 L 166 194 L 165 195 L 162 195 L 161 196 L 156 196 L 155 197 L 152 197 L 151 198 L 151 199 L 153 201 L 153 202 L 154 203 L 154 204 L 155 205 L 155 207 L 156 208 L 156 210 L 157 211 L 157 222 L 158 223 L 158 226 L 157 227 L 157 232 L 158 233 L 158 235 L 157 236 L 157 255 L 158 256 L 158 257 L 160 259 L 161 259 L 162 260 L 164 260 L 165 259 L 167 259 L 168 258 L 170 258 L 171 257 L 172 257 L 173 256 L 174 256 L 175 255 L 177 255 L 178 254 L 179 254 L 180 253 L 181 253 L 183 251 L 184 251 L 185 250 L 186 250 L 187 249 L 188 249 L 190 247 L 191 247 L 193 245 L 194 245 L 196 243 L 197 243 L 201 239 L 202 239 L 208 233 L 209 233 L 211 231 L 211 230 L 219 222 L 219 221 L 223 217 L 223 216 L 225 214 L 225 213 L 227 211 L 227 210 L 229 208 L 229 207 L 230 206 L 230 205 L 231 204 L 231 203 L 233 201 L 233 200 L 234 199 L 234 198 L 235 197 L 235 195 L 236 194 L 236 193 L 237 192 L 237 191 L 238 190 L 238 188 L 239 187 L 239 185 L 240 184 L 240 183 L 241 182 L 241 179 L 242 178 L 242 176 L 243 175 L 243 172 L 244 171 L 244 167 L 245 166 L 245 161 L 246 160 L 246 150 L 247 149 L 247 134 L 246 133 L 246 125 L 245 124 L 245 119 L 244 118 L 244 114 L 243 113 L 243 110 L 242 109 L 242 107 L 241 106 L 241 103 L 240 102 L 240 100 L 239 99 L 239 98 L 238 97 L 238 95 L 237 94 L 237 93 L 236 92 L 236 91 L 235 90 L 235 89 L 234 88 L 234 87 L 233 86 L 233 84 L 231 82 L 231 81 L 230 80 L 230 79 L 228 77 L 228 76 L 227 75 L 227 74 L 225 72 L 225 71 L 222 68 L 222 67 L 219 64 L 219 63 L 202 46 L 201 46 L 198 43 L 197 43 L 194 40 L 193 40 L 191 38 L 190 38 L 189 37 L 188 37 L 186 35 L 185 35 L 184 34 L 183 34 L 182 33 L 181 33 L 179 31 L 177 31 L 176 30 L 175 30 L 174 29 L 173 29 L 172 28 L 170 28 L 169 27 L 168 27 L 167 26 L 165 26 L 164 25 L 162 25 L 161 24 L 159 24 L 158 23 L 154 23 L 153 22 L 149 22 L 148 21 L 143 21 L 142 20 L 134 20 L 133 19 Z" fill="#000000" fill-rule="evenodd" stroke="none" /></svg>